HIERARCHY
ROOT Hips
{
	OFFSET 0.000000 0.000000 0.000000
	CHANNELS 6 Xposition Yposition Zposition Zrotation Yrotation Xrotation 
	JOINT LHipJoint
	{
		OFFSET 0.000000 0.000000 0.000000
		CHANNELS 3 Zrotation Yrotation Xrotation
		JOINT LeftUpLeg
		{
			OFFSET 1.363060 -1.794630 0.839290
			CHANNELS 3 Zrotation Yrotation Xrotation
			JOINT LeftLeg
			{
				OFFSET 2.448110 -6.726130 0.000000
				CHANNELS 3 Zrotation Yrotation Xrotation
				JOINT LeftFoot
				{
					OFFSET 2.562200 -7.039590 0.000000
					CHANNELS 3 Zrotation Yrotation Xrotation
					JOINT LeftToeBase
					{
						OFFSET 0.157640 -0.433110 2.322550
						CHANNELS 3 Zrotation Yrotation Xrotation
						End Site
						{
							OFFSET 0.000000 0.000000 0.000000
						}
					}
				}
			}
		}
	}
	JOINT RHipJoint
	{
		OFFSET 0.000000 0.000000 0.000000
		CHANNELS 3 Zrotation Yrotation Xrotation
		JOINT RightUpLeg
		{
			OFFSET -1.305520 -1.794630 0.839290
			CHANNELS 3 Zrotation Yrotation Xrotation
			JOINT RightLeg
			{
				OFFSET -2.542530 -6.985550 0.000000
				CHANNELS 3 Zrotation Yrotation Xrotation
				JOINT RightFoot
				{
					OFFSET -2.568260 -7.056230 0.000000
					CHANNELS 3 Zrotation Yrotation Xrotation
					JOINT RightToeBase
					{
						OFFSET -0.164730 -0.452590 2.363150
						CHANNELS 3 Zrotation Yrotation Xrotation
						End Site
						{
							OFFSET 0.000000 0.000000 0.000000
						}
					}
				}
			}
		}
	}
	JOINT LowerBack
	{
		OFFSET 0.000000 0.000000 0.000000
		CHANNELS 3 Zrotation Yrotation Xrotation
		JOINT Spine
		{
			OFFSET 0.028270 2.035590 -0.193380
			CHANNELS 3 Zrotation Yrotation Xrotation
			JOINT Spine1
			{
				OFFSET 0.056720 2.048850 -0.042750
				CHANNELS 3 Zrotation Yrotation Xrotation
				JOINT Neck
				{
					OFFSET 0.000000 0.000000 0.000000
					CHANNELS 3 Zrotation Yrotation Xrotation
					JOINT Neck1
					{
						OFFSET -0.054170 1.746240 0.172020
						CHANNELS 3 Zrotation Yrotation Xrotation
						JOINT Head
						{
							OFFSET 0.104070 1.761360 -0.123970
							CHANNELS 3 Zrotation Yrotation Xrotation
							End Site
							{
								OFFSET 0.000000 0.000000 0.000000
							}
						}
					}
				}
				JOINT LeftShoulder
				{
					OFFSET 0.000000 0.000000 0.000000
					CHANNELS 3 Zrotation Yrotation Xrotation
					JOINT LeftArm
					{
						OFFSET 3.362410 1.200890 -0.311210
						CHANNELS 3 Zrotation Yrotation Xrotation
						JOINT LeftForeArm
						{
							OFFSET 4.983000 -0.000000 -0.000000
							CHANNELS 3 Zrotation Yrotation Xrotation
							JOINT LeftHand
							{
								OFFSET 3.483560 -0.000000 -0.000000
								CHANNELS 3 Zrotation Yrotation Xrotation
								JOINT LeftFingerBase
								{
									OFFSET 0.000000 0.000000 0.000000
									CHANNELS 3 Zrotation Yrotation Xrotation
									JOINT LeftHandIndex1
									{
										OFFSET 0.715260 -0.000000 -0.000000
										CHANNELS 3 Zrotation Yrotation Xrotation
										End Site
										{
											OFFSET 0.000000 0.000000 0.000000
										}
									}
								}
								JOINT LThumb
								{
									OFFSET 0.000000 0.000000 0.000000
									CHANNELS 3 Zrotation Yrotation Xrotation
									End Site
									{
										OFFSET 0.000000 0.000000 0.000000
									}
								}
							}
						}
					}
				}
				JOINT RightShoulder
				{
					OFFSET 0.000000 0.000000 0.000000
					CHANNELS 3 Zrotation Yrotation Xrotation
					JOINT RightArm
					{
						OFFSET -3.136600 1.374050 -0.404650
						CHANNELS 3 Zrotation Yrotation Xrotation
						JOINT RightForeArm
						{
							OFFSET -5.241900 -0.000000 -0.000000
							CHANNELS 3 Zrotation Yrotation Xrotation
							JOINT RightHand
							{
								OFFSET -3.444170 -0.000000 -0.000000
								CHANNELS 3 Zrotation Yrotation Xrotation
								JOINT RightFingerBase
								{
									OFFSET 0.000000 0.000000 0.000000
									CHANNELS 3 Zrotation Yrotation Xrotation
									JOINT RightHandIndex1
									{
										OFFSET -0.622530 -0.000000 -0.000000
										CHANNELS 3 Zrotation Yrotation Xrotation
										End Site
										{
											OFFSET 0.000000 0.000000 0.000000
										}
									}
								}
								JOINT RThumb
								{
									OFFSET 0.000000 0.000000 0.000000
									CHANNELS 3 Zrotation Yrotation Xrotation
									End Site
									{
										OFFSET 0.000000 0.000000 0.000000
									}
								}
							}
						}
					}
				}
			}
		}
	}
}
MOTION
Frames: 7
Frame Time: 0.008333
8.586692 17.655972 -2.694684 4.029322 -42.660372 1.013193 6.349722 0.525585 -1.073425 -20.557159 -12.283739 -1.345542 -1.131556 7.504081 20.852037 -3.122503 13.570710 -8.307143 1.242800 -7.068700 -19.919100 -8.336458 0.334666 -2.327924 14.738577 14.817937 -14.548791 -0.610845 -10.098568 24.691093 3.797516 -23.628850 -26.571426 -0.019900 0.911300 -2.504700 5.899996 0.447177 21.517701 4.781724 1.934465 6.815490 1.241069 0.110357 9.736935 -1.704140 -6.826300 -4.300733 20.473408 -11.471484 2.082686 3.932900 -5.676300 1.480600 13.660538 -0.097645 0.793432 -94.913220 -10.645509 67.954322 76.781740 -61.596952 -67.654891 4.352245 -4.551045 -17.586405 17.246863 33.260722 9.562500 -7.125000 0.000000 0.000000 -29.440700 68.540900 -17.179400 -14.612776 -2.010635 1.240637 86.272246 25.675076 43.909411 -43.009966 46.958819 -26.752562 -2.987409 3.204317 -78.506393 -36.188667 -21.234337 18.644200 7.125000 0.000000 0.000000 -11.173800 -60.324700 4.207400 
8.443473 17.668805 -2.787031 3.894633 -42.204994 1.148712 6.360284 0.568839 -1.017281 -20.198867 -12.999510 -1.361511 -1.107556 7.604682 21.079025 -3.368506 14.401250 -8.665375 1.010200 -6.395200 -17.935400 -8.318160 0.301055 -2.405032 15.425251 13.305984 -15.055117 -0.711446 -10.218903 25.087858 4.049864 -23.876305 -24.916738 -0.084700 1.876800 -5.165400 6.359610 0.118183 21.563033 4.836619 1.623002 6.794984 0.984462 -0.071576 9.643222 -1.521797 -6.758666 -4.213328 20.366702 -11.425985 2.031409 3.772000 -5.674400 1.388000 13.643492 -0.761579 0.404115 -96.726126 -14.551951 71.936291 70.127675 -58.137596 -61.832365 4.434136 -4.866911 -17.960734 16.961383 33.241409 9.482100 -7.125000 0.000000 0.000000 -30.150500 68.727900 -17.745700 -14.568383 -1.370822 1.522841 84.713394 28.178109 40.844866 -39.328908 45.025914 -23.242686 -2.921997 3.304211 -78.287554 -35.391295 -21.524473 18.333100 7.125000 0.000000 0.000000 -10.254200 -60.355400 3.864100 
8.304838 17.684043 -2.879722 3.847080 -41.703041 1.242145 6.374455 0.596117 -0.975675 -19.969910 -13.549152 -1.527310 -1.076828 7.743666 21.370399 -3.643827 15.344660 -9.091803 0.783400 -5.650500 -15.773700 -8.303095 0.294135 -2.463963 16.026889 12.140512 -15.474038 -0.795481 -10.341456 25.487732 4.151163 -23.920024 -24.035947 -0.138800 2.401100 -6.615600 6.742950 -0.183230 21.584406 4.890990 1.337211 6.786597 0.765667 -0.253697 9.591517 -1.499719 -6.736390 -4.152194 20.412703 -11.434176 1.979801 3.708800 -5.692800 1.333800 13.635028 -1.459973 0.026564 -98.615006 -18.518908 75.734622 64.102305 -54.817514 -55.764735 4.369871 -5.135487 -18.896758 16.661482 33.315415 9.504100 -7.125000 0.000000 0.000000 -30.660600 68.947000 -18.214300 -14.532266 -0.724785 1.829084 82.966708 30.689258 37.533271 -35.785074 42.886558 -19.950974 -2.832010 3.422254 -77.620103 -34.631647 -21.635630 17.940400 7.125000 0.000000 0.000000 -9.395500 -60.206300 3.503600 
8.169983 17.699969 -2.970695 3.915542 -41.172303 1.273780 6.392955 0.609045 -0.949033 -19.900679 -13.888265 -1.838403 -1.041299 7.916537 21.715596 -3.949401 16.409886 -9.603693 0.585100 -4.897900 -13.617500 -8.293141 0.312438 -2.505055 16.518513 11.379001 -15.775332 -0.864004 -10.464662 25.878846 4.184398 -23.957423 -23.799011 -0.162700 2.598500 -7.162800 7.028202 -0.449009 21.556620 4.943838 1.081027 6.787283 0.591099 -0.434199 9.599563 -1.666864 -6.761930 -4.103949 20.607738 -11.498490 1.944937 3.747400 -5.731300 1.318400 13.640616 -2.185638 -0.335412 -100.597260 -22.484233 79.337397 58.446261 -51.679599 -49.587554 4.223740 -5.373371 -20.375271 16.346890 33.391208 9.585000 -7.125000 0.000000 0.000000 -30.941500 69.140200 -18.523700 -14.509899 -0.081676 2.155728 81.008860 33.142839 33.989250 -32.467714 40.571230 -16.952354 -2.714250 3.548938 -76.483918 -33.882169 -21.638951 17.492200 7.125000 0.000000 0.000000 -8.553900 -59.948100 3.134200 
8.039483 17.714864 -3.058917 4.106573 -40.617840 1.228216 6.416089 0.610746 -0.934330 -20.010552 -14.016176 -2.283909 -1.001833 8.121428 22.111151 -4.268991 17.546819 -10.193006 0.429000 -4.203600 -11.650200 -8.284306 0.349616 -2.535258 16.886384 10.914472 -15.978685 -0.922173 -10.585132 26.265010 4.159911 -23.965915 -24.070994 -0.149300 2.489600 -6.860800 7.217278 -0.679575 21.493430 4.995738 0.855911 6.794765 0.460327 -0.611804 9.661100 -1.995943 -6.835150 -4.080371 20.909715 -11.619692 1.933748 3.860700 -5.790600 1.338600 13.673581 -2.932553 -0.689829 -102.702516 -26.378763 82.819849 53.109639 -48.706062 -43.538015 4.053035 -5.609993 -22.294023 16.087894 33.468028 9.750500 -7.125000 0.000000 0.000000 -31.042300 69.355300 -18.734100 -14.505818 0.556392 2.502443 78.824024 35.493069 30.147609 -29.440180 38.132684 -14.296442 -2.582415 3.668225 -74.888716 -33.056162 -21.799253 17.094300 7.125000 0.000000 0.000000 -7.569900 -59.863900 2.755700 
7.913336 17.728040 -3.142901 4.387420 -40.042245 1.107205 6.443570 0.606917 -0.926721 -20.283484 -13.942173 -2.839314 -0.955541 8.355495 22.561758 -4.564294 18.624948 -10.794316 0.322800 -3.652000 -10.099600 -8.273991 0.397944 -2.561230 17.155336 10.609595 -16.103363 -0.976963 -10.702061 26.657113 4.081806 -23.904634 -24.669275 -0.111600 2.153600 -5.930200 7.316681 -0.899004 21.417897 5.052048 0.633976 6.808535 0.387280 -0.802888 9.761437 -2.459197 -6.928940 -4.075601 21.261309 -11.762737 1.945460 4.018400 -5.855700 1.381400 13.743409 -3.697997 -1.043544 -104.955072 -30.118403 86.211924 48.113104 -45.832027 -37.826229 3.898012 -5.861309 -24.414616 15.830786 33.525709 9.929700 -7.125000 0.000000 0.000000 -31.084900 69.561600 -18.901300 -14.525502 1.189005 2.870460 76.430677 37.732007 26.046822 -26.734870 35.631169 -12.002961 -2.445758 3.771969 -72.917725 -32.099898 -22.219767 16.766700 7.125000 0.000000 0.000000 -6.342300 -60.053000 2.335100 
7.791314 17.739726 -3.222186 4.712907 -39.455639 0.940244 6.475353 0.600376 -0.922401 -20.683291 -13.706878 -3.488984 -0.899034 8.616256 23.073332 -4.778896 19.448893 -11.311107 0.257700 -3.266000 -9.020300 -8.261244 0.451666 -2.586719 17.358006 10.355182 -16.190413 -1.034247 -10.818551 27.066669 3.955254 -23.740931 -25.419089 -0.069600 1.701500 -4.681300 7.351018 -1.113647 21.338274 5.115596 0.410771 6.827240 0.364326 -1.006221 9.884953 -2.988797 -7.023550 -4.072388 21.611665 -11.904833 1.952006 4.184300 -5.922000 1.418700 13.861099 -4.480045 -1.392710 -107.363450 -33.656900 89.631286 43.519194 -42.987904 -32.605723 3.767302 -6.140304 -26.542654 15.641253 33.566317 10.157800 -7.125000 0.000000 0.000000 -31.048300 69.789200 -19.031200 -14.571067 1.811053 3.255720 73.869867 39.828241 21.758031 -24.363366 33.131186 -10.064641 -2.290622 3.857698 -70.889940 -31.074203 -22.563621 16.339300 7.125000 0.000000 0.000000 -5.025400 -60.122600 1.856900 
